<?xml version="1.0" encoding="utf-8"?>
<!-- Generator: Adobe Illustrator 24.3.0, SVG Export Plug-In . SVG Version: 6.00 Build 0)  -->
<svg version="1.1" id="Layer_1" xmlns="http://www.w3.org/2000/svg" xmlns:xlink="http://www.w3.org/1999/xlink" x="0px" y="0px"
	 viewBox="0 0 164.41 68.03" style="enable-background:new 0 0 164.41 68.03;" xml:space="preserve">
<style type="text/css">
	.st0{fill:#459945;}
	.st1{fill:#276130;}
	.st2{fill:none;}
	.st3{fill:#FFFFFF;}
	.st4{fill:#8F8F8F;}
	.st5{opacity:0.73;fill:#FFFFFF;}
	.st6{fill:#94B93D;}
</style>
<g>
	<path class="st0" d="M62.8,34.34c-0.28-0.59-0.82-1.42-1.89-2.28c-1.5-1.2-2.23-1.18-2.35-2.44c-0.12-1.26-0.74-1.66-1.3-1.56
		c-1.38,0.24-0.1,1.26-1.59,1.27c-0.66,0.01-1.45-0.92-1.75-2.23c-0.3-1.3-1.13-1.92-2.11-1.75c-0.98,0.17-1.84,1.31-1.5,1.92
		c0.33,0.61-0.08,0.96-0.84,0.02c-0.76-0.95-2.06-4.04-4.37-3.97c-2.31,0.07-1.98,1.83-1.04,2.65c0.94,0.81,0.11,0.98-1.08,0.19
		c-1.19-0.79-3.43-2.76-6.02-2.08c-2.59,0.69-0.88,3.01,0.37,3.43c1.25,0.43,1.24,1.54,0.19,1.42c-1.05-0.12-6.77-1.48-7.91,0.96
		c-0.24,0.51-0.32,1.06-0.26,1.59c0.16,1.38,1.3,2.62,3.44,2.55c2.97-0.09,3.83-0.74,4.24,0.16c0.41,0.9-2.62,1.75-1.95,3.93
		c0.66,2.19,3.86,1.96,5.1,0.63c1.24-1.33,3.14-2.53,3.43-1.96c0.29,0.57-2.41,2.49-0.65,3.69c1.76,1.2,3.7-0.01,4.7-1.39
		c1-1.38,1.46-2.79,2.23-2.25c0.78,0.54-0.76,1.13-0.52,1.98c0.25,0.85,2.9,1.26,3.99-0.15c1.1-1.41,1.69-3.75,2.54-3.1
		s-0.26,0.87-0.09,1.3s1.27,1.55,2.26,0.13c0.98-1.42,0.92-4.88,2.66-3.71c1.31,0.89,1.7,1.76,1.81,2.14
		c0.04,0.12,0.04,0.19,0.04,0.19l0.32-0.26l0.18-0.15c0,0,0-0.01,0.01-0.01C63.09,35.2,63.05,34.86,62.8,34.34z"/>
	<path class="st1" d="M60.91,32.06c-1.5-1.2-2.23-1.18-2.35-2.44c-0.12-1.26-0.74-1.66-1.3-1.56c-1.38,0.24-0.1,1.26-1.59,1.27
		c-0.66,0.01-1.45-0.92-1.75-2.23c-0.3-1.3-1.13-1.92-2.11-1.75c-0.98,0.17-1.84,1.31-1.5,1.92c0.33,0.61-0.08,0.96-0.84,0.02
		c-0.76-0.95-2.06-4.04-4.37-3.97c-2.31,0.07-1.98,1.83-1.04,2.65c0.94,0.81,0.11,0.98-1.08,0.19c-1.19-0.79-3.43-2.76-6.02-2.08
		c-2.59,0.69-0.88,3.01,0.37,3.43c1.25,0.43,1.24,1.54,0.19,1.42c-1.05-0.12-6.77-1.48-7.91,0.96c-0.24,0.51-0.32,1.06-0.26,1.59
		c1.47,0.38,3.62,0.49,6.77,0c9.8-1.53,15.62-1.27,20.65-0.22c3.96,0.82,5.56,2.46,6.12,4.12l0.19-0.15
		C63.09,35.23,62.95,33.7,60.91,32.06z"/>
	<g>
		<path class="st1" d="M105.97,34.35c0.28-0.59,0.82-1.42,1.89-2.28c1.5-1.2,2.23-1.18,2.35-2.44c0.12-1.26,0.74-1.66,1.3-1.56
			c1.38,0.24,0.1,1.26,1.59,1.27c0.66,0.01,1.45-0.92,1.75-2.23c0.3-1.3,1.13-1.92,2.11-1.75c0.98,0.17,1.84,1.31,1.5,1.92
			c-0.33,0.61,0.08,0.96,0.84,0.02c0.76-0.95,2.06-4.04,4.37-3.97c2.31,0.07,1.98,1.83,1.04,2.65c-0.94,0.81-0.11,0.98,1.08,0.19
			c1.19-0.79,3.43-2.76,6.02-2.08c2.59,0.69,0.88,3.01-0.37,3.43c-1.25,0.43-1.24,1.54-0.19,1.42c1.05-0.12,6.77-1.48,7.91,0.96
			c0.24,0.51,0.32,1.06,0.26,1.59c-0.16,1.38-1.3,2.62-3.44,2.55c-2.97-0.09-3.83-0.74-4.24,0.16s2.62,1.75,1.95,3.93
			c-0.66,2.19-3.86,1.96-5.1,0.63c-1.24-1.33-3.14-2.53-3.43-1.96c-0.29,0.57,2.41,2.49,0.65,3.69c-1.76,1.2-3.7-0.01-4.7-1.39
			c-1-1.38-1.46-2.79-2.23-2.25c-0.78,0.54,0.76,1.13,0.52,1.98c-0.25,0.85-2.9,1.26-3.99-0.15c-1.1-1.41-1.69-3.75-2.54-3.1
			c-0.84,0.64,0.26,0.87,0.09,1.3s-1.27,1.55-2.26,0.13c-0.98-1.42-0.92-4.88-2.66-3.71c-1.31,0.89-1.7,1.76-1.81,2.14
			c-0.04,0.12-0.04,0.19-0.04,0.19l-0.32-0.26l-0.18-0.15c0,0,0-0.01-0.01-0.01C105.68,35.21,105.72,34.87,105.97,34.35z"/>
		<path class="st0" d="M107.86,32.07c1.5-1.2,2.23-1.18,2.35-2.44c0.12-1.26,0.74-1.66,1.3-1.56c1.38,0.24,0.1,1.26,1.59,1.27
			c0.66,0.01,1.45-0.92,1.75-2.23c0.3-1.3,1.13-1.92,2.11-1.75c0.98,0.17,1.84,1.31,1.5,1.92c-0.33,0.61,0.08,0.96,0.84,0.02
			c0.76-0.95,2.06-4.04,4.37-3.97c2.31,0.07,1.98,1.83,1.04,2.65c-0.94,0.81-0.11,0.98,1.08,0.19c1.19-0.79,3.43-2.76,6.02-2.08
			c2.59,0.69,0.88,3.01-0.37,3.43c-1.25,0.43-1.24,1.54-0.19,1.42c1.05-0.12,6.77-1.48,7.91,0.96c0.24,0.51,0.32,1.06,0.26,1.59
			c-1.47,0.38-3.62,0.49-6.77,0c-9.8-1.53-15.62-1.27-20.65-0.22c-3.96,0.82-5.56,2.46-6.12,4.12l-0.19-0.15
			C105.68,35.24,105.82,33.71,107.86,32.07z"/>
	</g>
	<path class="st0" d="M82.2,39.05c-0.87,0.01-2.18-0.16-3.82-0.95c-2.31-1.1-2.7-1.98-4.29-1.39c-1.58,0.59-2.42,0.08-2.63-0.65
		c-0.52-1.8,1.44-0.85,0.6-2.64c-0.37-0.79-1.95-1.2-3.68-0.8c-1.73,0.4-2.96-0.24-3.33-1.51c-0.37-1.27,0.5-2.96,1.42-2.91
		c0.92,0.05,1.11-0.65-0.47-1.01c-1.57-0.36-6.04-0.12-7.29-2.92c-1.25-2.8,1.04-3.44,2.56-2.79c1.52,0.65,1.24-0.44-0.4-1.41
		c-1.64-0.97-5.3-2.5-5.98-6c-0.68-3.5,3.09-2.8,4.33-1.55c1.24,1.25,2.56,0.59,1.82-0.6c-0.75-1.19-5.7-7.25-3.44-10.03
		c0.47-0.58,1.08-1,1.76-1.23c1.74-0.61,3.89,0.04,5.05,2.63c1.62,3.6,1.33,5.01,2.66,4.98s0.57-4.15,3.58-4.62
		c3.01-0.48,4.59,3.49,3.72,5.75c-0.87,2.26-1.21,5.23-0.35,5.25c0.86,0.02,1.58-4.33,4.04-2.93c2.46,1.41,2.13,4.44,1.06,6.44
		c-1.07,2-2.49,3.36-1.39,3.98c1.1,0.62,0.9-1.57,2.07-1.77c1.17-0.2,3.19,2.74,2.14,4.87c-1.05,2.13-3.5,4.2-2.25,4.84
		c1.26,0.64,0.89-0.82,1.51-0.87s2.6,0.62,1.47,2.63c-1.13,2.01-5.31,3.94-2.9,5.33c1.82,1.05,3.1,1.01,3.61,0.93
		c0.17-0.03,0.25-0.06,0.25-0.06l-0.12,0.53l-0.07,0.3c0,0.01-0.01,0.01-0.01,0.02C83.39,38.9,82.96,39.05,82.2,39.05z"/>
	<path class="st1" d="M78.37,38.11c-2.31-1.1-2.7-1.98-4.29-1.39c-1.58,0.59-2.42,0.08-2.63-0.65c-0.52-1.8,1.44-0.85,0.6-2.64
		c-0.37-0.79-1.95-1.2-3.68-0.8c-1.73,0.4-2.96-0.24-3.33-1.51c-0.37-1.27,0.5-2.96,1.42-2.91c0.92,0.05,1.11-0.65-0.47-1.01
		c-1.57-0.36-6.04-0.12-7.29-2.92c-1.25-2.8,1.04-3.44,2.56-2.79c1.52,0.65,1.24-0.44-0.4-1.41c-1.64-0.97-5.3-2.5-5.98-6
		c-0.68-3.5,3.09-2.8,4.33-1.55c1.24,1.25,2.56,0.59,1.82-0.6c-0.75-1.19-5.7-7.25-3.44-10.03c0.47-0.58,1.08-1,1.76-1.23
		c1.31,1.54,2.69,4.05,3.93,8.11c3.86,12.62,7.55,19.44,11.73,24.86c3.28,4.26,6.17,5.23,8.49,4.94l-0.07,0.31
		C83.43,38.88,81.52,39.6,78.37,38.11z"/>
	<path class="st0" d="M64.95,40.99c0.51-1.01,1.98-1.66,3.28-1.42c1.32,0.25,2.37,0.95,3.24,1.95c0.93,1.06,1.31,1.12,2.56,0.45
		c2.68-1.43,5.47-2.58,8.41-3.27c0.39-0.08,0.74-0.16,1.07-0.23l0.01,0.6c-1.61,0.27-3.2,0.68-4.77,1.28
		c-1.69,0.65-3.3,1.51-4.92,2.33c-0.73,0.37-0.88,0.79-0.67,1.61c0.33,1.3,0.57,2.59,0.13,3.91c-0.38,1.16-1.14,1.97-2.32,2.3
		c-0.37,0.1-0.78,0.05-1.16,0.07c0.18-3.27-1.18-5.8-3.27-7.99c-0.38-0.4-0.89-0.71-1.39-0.96C64.79,41.44,64.8,41.28,64.95,40.99z"
		/>
	<polygon class="st2" points="87.32,8.84 87.36,4.15 87.16,4.16 87.16,4.22 84.35,4.19 81.53,4.22 81.53,4.16 81.34,4.15 
		81.37,8.84 84.33,10.89 84.33,10.9 84.37,10.9 84.37,10.89 	"/>
	<polygon class="st3" points="76.83,46.51 76.83,46.51 76.98,46.51 	"/>
	<polygon class="st3" points="91.86,46.51 91.72,46.51 91.86,46.51 	"/>
	<polygon class="st2" points="87.36,4.15 87.16,4.16 87.16,4.22 84.35,4.19 81.53,4.22 81.53,4.16 81.34,4.15 81.37,8.84 
		84.33,10.89 84.33,10.9 84.37,10.9 84.37,10.89 87.32,8.84 	"/>
	<polygon class="st2" points="84.88,55.22 84.92,54.93 85.11,47.24 	"/>
	<polygon class="st3" points="85.14,46.51 85.14,46.45 85.14,46.18 85.11,47.24 	"/>
	<path class="st2" d="M84.88,56.41"/>
	<polygon class="st2" points="87.36,4.15 87.16,4.16 87.16,4.22 84.35,4.19 81.53,4.22 81.53,4.16 81.34,4.15 81.37,8.84 
		84.33,10.89 84.33,10.9 84.37,10.9 84.37,10.89 87.32,8.84 	"/>
	<path class="st1" d="M86.57,39.06c0.87,0.01,2.18-0.16,3.82-0.95c2.31-1.1,2.7-1.98,4.29-1.39c1.58,0.59,2.42,0.08,2.63-0.65
		c0.52-1.8-1.44-0.85-0.6-2.64c0.37-0.79,1.95-1.2,3.68-0.8c1.73,0.4,2.96-0.24,3.33-1.51c0.37-1.27-0.5-2.96-1.42-2.91
		c-0.92,0.05-1.11-0.65,0.47-1.01c1.57-0.36,6.04-0.12,7.29-2.92c1.25-2.8-1.04-3.44-2.56-2.79c-1.52,0.65-1.24-0.44,0.4-1.41
		s5.3-2.5,5.98-6c0.68-3.5-3.09-2.8-4.33-1.55c-1.24,1.25-2.56,0.59-1.82-0.6c0.75-1.19,5.7-7.25,3.44-10.03
		c-0.47-0.58-1.08-1-1.76-1.23c-1.74-0.61-3.89,0.04-5.05,2.63c-1.62,3.6-1.33,5.01-2.66,4.98c-1.32-0.03-0.57-4.15-3.58-4.62
		c-3.01-0.48-4.59,3.49-3.72,5.75c0.87,2.26,1.21,5.23,0.35,5.25c-0.86,0.02-1.58-4.33-4.04-2.93c-2.46,1.41-2.13,4.44-1.06,6.44
		c1.07,2,2.49,3.36,1.39,3.98c-1.1,0.62-0.9-1.57-2.07-1.77c-1.17-0.2-3.19,2.74-2.14,4.87c1.05,2.13,3.5,4.2,2.25,4.84
		c-1.26,0.64-0.89-0.82-1.51-0.87s-2.6,0.62-1.47,2.63c1.13,2.01,5.31,3.94,2.9,5.33c-1.82,1.05-3.1,1.01-3.61,0.93
		c-0.17-0.03-0.25-0.06-0.25-0.06l0.12,0.53l0.07,0.3c0,0.01,0.01,0.01,0.01,0.02C85.38,38.91,85.81,39.05,86.57,39.06z"/>
	<path class="st0" d="M90.4,38.12c2.31-1.1,2.7-1.98,4.29-1.39c1.58,0.59,2.42,0.08,2.63-0.65c0.52-1.8-1.44-0.85-0.6-2.64
		c0.37-0.79,1.95-1.2,3.68-0.8c1.73,0.4,2.96-0.24,3.33-1.51c0.37-1.27-0.5-2.96-1.42-2.91c-0.92,0.05-1.11-0.65,0.47-1.01
		c1.57-0.36,6.04-0.12,7.29-2.92c1.25-2.8-1.04-3.44-2.56-2.79c-1.52,0.65-1.24-0.44,0.4-1.41s5.3-2.5,5.98-6
		c0.68-3.5-3.09-2.8-4.33-1.55c-1.24,1.25-2.56,0.59-1.82-0.6c0.75-1.19,5.7-7.25,3.44-10.03c-0.47-0.58-1.08-1-1.76-1.23
		c-1.31,1.54-2.69,4.05-3.93,8.11c-3.86,12.62-7.55,19.44-11.73,24.86c-3.28,4.26-6.17,5.23-8.49,4.94l0.07,0.31
		C85.34,38.89,87.25,39.61,90.4,38.12z"/>
	<g>
		<path class="st0" d="M108.91,44.35c-1.05-0.81-2.26-1.42-3.4-2.12c-0.45-0.27-0.87-0.19-1.28,0.09c-1.36,0.93-2.29,2.22-3.02,3.66
			c-0.6,1.17-1.02,2.4-1.09,3.73c-0.03,0.56,0.14,0.98,0.64,1.29c2.16,1.33,4.43,2.36,7.04,2.17c0.95-0.07,1.9-0.39,2.81-0.7
			c0.73-0.25,1.35-0.88,2.27-0.54c-0.62-0.55-0.65-1.22-0.72-1.91C111.95,47.63,110.75,45.77,108.91,44.35z M107.89,45.6
			c-1.24-0.8-2.57-1.45-3.91-2.2c0.17-0.31,0.43-0.43,0.84-0.26c1.59,0.68,3.02,1.58,4.23,2.82c0.81,0.82,1.58,2.07,1.79,2.96
			C110.08,47.53,109.14,46.4,107.89,45.6z"/>
		<path class="st1" d="M103.83,41.01c-0.51-1.01-1.98-1.66-3.28-1.42c-1.32,0.25-2.37,0.95-3.24,1.95
			c-0.93,1.06-1.31,1.12-2.56,0.45c-2.68-1.43-5.47-2.58-8.41-3.27c-0.39-0.08-0.74-0.16-1.07-0.23l-0.01,0.6
			c1.61,0.27,3.2,0.68,4.77,1.28c1.69,0.65,3.3,1.51,4.92,2.33c0.73,0.37,0.88,0.79,0.67,1.61c-0.33,1.3-0.57,2.59-0.13,3.91
			c0.38,1.16,1.14,1.97,2.32,2.3c0.37,0.1,0.78,0.05,1.16,0.07c-0.18-3.27,1.18-5.8,3.27-7.99c0.38-0.4,0.89-0.71,1.39-0.96
			C103.98,41.46,103.98,41.3,103.83,41.01z"/>
	</g>
	<path class="st2" d="M88.82,38.89c-0.08-0.01-0.16-0.03-0.23-0.04c0,0.01,0,0.02,0,0.03C88.66,38.89,88.74,38.89,88.82,38.89z"/>
	<path class="st4" d="M91.86,46.51h-0.15l-5.69,0.13L84.68,63.9l0.23-8.97l0.03-1.1l0.17-6.59l0.03-1.06L85.7,11.9l3.11-2.4
		c0,0,0-5.96,0-6.44c0-0.47-0.46-0.52-0.46-0.52h-1.19h-2.82h-2.82h-1.19c0,0-0.46,0.05-0.46,0.52c0,0.47,0,6.44,0,6.44l3.11,2.4
		l0.56,34.28l0.38,11.29l-0.91-10.73l-0.03-0.1l-6.01-0.13h-0.15h-2.03c0,0.07,0,0.14,0,0.21c0.24,3.26,0.35,6.53,0.76,9.76
		c0.65,5.19,3.44,8.88,8.27,10.98c0.18,0.08,0.34,0.11,0.51,0.11c0.17,0,0.34-0.04,0.52-0.12c4.64-2.01,7.46-5.53,8.17-10.5
		c0.5-3.45,0.58-6.96,0.85-10.45H91.86z M84.37,10.9h-0.02h-0.02v-0.01l-2.95-2.05l-0.03-4.69l0.19,0v0.07l2.82-0.03h0l2.82,0.03
		V4.16l0.19,0l-0.03,4.69l-2.95,2.05V10.9z"/>
	<path class="st5" d="M83.93,57.47l-0.91-10.73l-0.03-0.1l-6.01-0.13h-0.15h-2.03c0,0.07,0,0.14,0,0.21
		c0.24,3.26,0.35,6.53,0.76,9.76c0.65,5.19,3.44,8.88,8.27,10.98c0.18,0.08,0.34,0.11,0.51,0.11V62.7L83.93,57.47z"/>
	<path class="st1" d="M56.61,49.99c-0.06,0.69-0.1,1.36-0.72,1.91c0.92-0.34,1.54,0.29,2.27,0.54c0.91,0.32,1.86,0.63,2.81,0.7
		c2.6,0.19,4.87-0.84,7.04-2.17c0.51-0.31,0.67-0.72,0.64-1.29c-0.07-1.33-0.49-2.56-1.09-3.73c-0.73-1.44-1.66-2.73-3.02-3.66
		c-0.42-0.29-0.84-0.37-1.28-0.09c-1.14,0.7-2.35,1.31-3.4,2.12C58.02,45.75,56.83,47.61,56.61,49.99z M57.93,48.9
		c0.21-0.9,0.99-2.14,1.79-2.96c1.21-1.24,2.64-2.14,4.23-2.82c0.41-0.17,0.66-0.05,0.84,0.26c-1.33,0.74-2.66,1.4-3.91,2.2
		C59.64,46.38,58.7,47.51,57.93,48.9z"/>
</g>
<g>
	<path class="st6" d="M0.65,67.48v-6.06h4.5v1.03H1.87v1.34h3.04v1.02H1.87v1.65h3.39v1.02H0.65z"/>
	<path class="st6" d="M5.99,65.5l1.19-0.12c0.07,0.4,0.22,0.69,0.44,0.88s0.51,0.28,0.89,0.28c0.39,0,0.69-0.08,0.89-0.25
		c0.2-0.17,0.3-0.36,0.3-0.58c0-0.14-0.04-0.27-0.13-0.37c-0.08-0.1-0.23-0.19-0.44-0.26c-0.14-0.05-0.47-0.14-0.98-0.26
		c-0.66-0.16-1.12-0.36-1.38-0.6C6.39,63.89,6.21,63.48,6.21,63c0-0.31,0.09-0.6,0.26-0.87c0.17-0.27,0.43-0.47,0.76-0.61
		c0.33-0.14,0.73-0.21,1.19-0.21c0.76,0,1.33,0.17,1.72,0.5c0.38,0.33,0.59,0.78,0.61,1.34L9.52,63.2
		c-0.05-0.31-0.16-0.54-0.34-0.67s-0.43-0.21-0.78-0.21c-0.36,0-0.63,0.07-0.84,0.22c-0.13,0.09-0.19,0.22-0.19,0.38
		c0,0.14,0.06,0.27,0.18,0.37c0.15,0.13,0.53,0.26,1.12,0.41c0.6,0.14,1.04,0.29,1.32,0.44c0.29,0.15,0.51,0.36,0.67,0.62
		c0.16,0.26,0.24,0.58,0.24,0.97c0,0.35-0.1,0.67-0.29,0.98c-0.19,0.3-0.47,0.53-0.82,0.68s-0.79,0.22-1.32,0.22
		c-0.77,0-1.35-0.18-1.77-0.53C6.31,66.7,6.07,66.18,5.99,65.5z"/>
	<path class="st6" d="M13.31,67.48v-5.04h-1.8v-1.03h4.82v1.03h-1.79v5.04H13.31z"/>
	<path class="st6" d="M17.12,61.41h2.24c0.5,0,0.89,0.04,1.15,0.12c0.36,0.1,0.66,0.29,0.91,0.56c0.25,0.27,0.45,0.59,0.58,0.98
		c0.13,0.39,0.2,0.86,0.2,1.43c0,0.5-0.06,0.93-0.19,1.29c-0.15,0.44-0.37,0.8-0.65,1.07c-0.21,0.21-0.5,0.37-0.86,0.48
		c-0.27,0.08-0.63,0.13-1.08,0.13h-2.3V61.41z M18.34,62.44v4.02h0.91c0.34,0,0.59-0.02,0.74-0.06c0.2-0.05,0.36-0.13,0.49-0.25
		c0.13-0.12,0.24-0.31,0.32-0.58c0.08-0.27,0.12-0.64,0.12-1.11c0-0.47-0.04-0.83-0.12-1.08c-0.08-0.25-0.2-0.45-0.35-0.59
		s-0.34-0.24-0.57-0.29c-0.17-0.04-0.51-0.06-1-0.06H18.34z"/>
	<path class="st6" d="M23.23,67.48v-1.16h1.16v1.16H23.23z"/>
</g>
<g>
	<path class="st6" d="M149.83,66.4v1.08h-4.07c0.04-0.41,0.18-0.79,0.4-1.16s0.66-0.85,1.31-1.45c0.52-0.49,0.84-0.82,0.96-0.99
		c0.16-0.24,0.24-0.48,0.24-0.71c0-0.26-0.07-0.46-0.21-0.6c-0.14-0.14-0.33-0.21-0.58-0.21c-0.24,0-0.44,0.07-0.58,0.22
		c-0.14,0.15-0.23,0.39-0.25,0.73l-1.16-0.12c0.07-0.64,0.29-1.1,0.65-1.38c0.36-0.28,0.82-0.42,1.36-0.42
		c0.6,0,1.07,0.16,1.41,0.48c0.34,0.32,0.51,0.72,0.51,1.2c0,0.27-0.05,0.53-0.15,0.78c-0.1,0.25-0.25,0.51-0.47,0.78
		c-0.14,0.18-0.39,0.44-0.76,0.77c-0.37,0.34-0.6,0.56-0.7,0.67c-0.1,0.11-0.18,0.22-0.24,0.32H149.83z"/>
	<path class="st6" d="M152.58,61.39c0.59,0,1.05,0.21,1.38,0.63c0.39,0.5,0.59,1.32,0.59,2.47c0,1.15-0.2,1.97-0.6,2.47
		c-0.33,0.41-0.79,0.62-1.37,0.62c-0.59,0-1.07-0.23-1.43-0.68c-0.36-0.45-0.54-1.26-0.54-2.43c0-1.14,0.2-1.96,0.6-2.46
		C151.53,61.6,151.99,61.39,152.58,61.39z M152.58,62.36c-0.14,0-0.27,0.04-0.38,0.13c-0.11,0.09-0.2,0.25-0.26,0.48
		c-0.08,0.3-0.12,0.81-0.12,1.52c0,0.71,0.04,1.2,0.11,1.47c0.07,0.27,0.16,0.44,0.27,0.53c0.11,0.09,0.23,0.13,0.37,0.13
		s0.27-0.04,0.38-0.13c0.11-0.09,0.2-0.25,0.26-0.48c0.08-0.3,0.12-0.8,0.12-1.51c0-0.71-0.04-1.2-0.11-1.47
		c-0.07-0.27-0.16-0.44-0.27-0.53C152.85,62.4,152.72,62.36,152.58,62.36z"/>
	<path class="st6" d="M159.25,66.4v1.08h-4.07c0.04-0.41,0.18-0.79,0.4-1.16s0.66-0.85,1.31-1.45c0.52-0.49,0.84-0.82,0.96-0.99
		c0.16-0.24,0.24-0.48,0.24-0.71c0-0.26-0.07-0.46-0.21-0.6c-0.14-0.14-0.33-0.21-0.58-0.21c-0.24,0-0.44,0.07-0.58,0.22
		c-0.14,0.15-0.23,0.39-0.25,0.73l-1.16-0.12c0.07-0.64,0.29-1.1,0.65-1.38c0.36-0.28,0.82-0.42,1.36-0.42
		c0.6,0,1.07,0.16,1.41,0.48c0.34,0.32,0.51,0.72,0.51,1.2c0,0.27-0.05,0.53-0.15,0.78c-0.1,0.25-0.25,0.51-0.47,0.78
		c-0.14,0.18-0.39,0.44-0.76,0.77c-0.37,0.34-0.6,0.56-0.7,0.67c-0.1,0.11-0.18,0.22-0.24,0.32H159.25z"/>
	<path class="st6" d="M163.96,66.4v1.08h-4.07c0.04-0.41,0.18-0.79,0.4-1.16s0.66-0.85,1.31-1.45c0.52-0.49,0.84-0.82,0.96-0.99
		c0.16-0.24,0.24-0.48,0.24-0.71c0-0.26-0.07-0.46-0.21-0.6c-0.14-0.14-0.33-0.21-0.58-0.21c-0.24,0-0.44,0.07-0.58,0.22
		c-0.14,0.15-0.23,0.39-0.25,0.73l-1.16-0.12c0.07-0.64,0.29-1.1,0.65-1.38c0.36-0.28,0.82-0.42,1.36-0.42
		c0.6,0,1.07,0.16,1.41,0.48c0.34,0.32,0.51,0.72,0.51,1.2c0,0.27-0.05,0.53-0.15,0.78c-0.1,0.25-0.25,0.51-0.47,0.78
		c-0.14,0.18-0.39,0.44-0.76,0.77c-0.37,0.34-0.6,0.56-0.7,0.67c-0.1,0.11-0.18,0.22-0.24,0.32H163.96z"/>
</g>
</svg>
